# xmcd
#
# Track frame offsets:
#	150
#	13987
#	33172
#	53325
#	69380
#	88020
#	107210
#	125260
#	144597
#	158937
#
# Disc length: 2358 seconds
#
# Revision: 1
# Processed by: cddbd v1.5.2PL0 Copyright (c) Steve Scherf et al.
# Submitted via: EasyCDDAExtractor 16.0.8.1
#
DISCID=7e09340a
DTITLE=SAX EM LOUVOR VOL III - SAX EM LOUVOR
DYEAR=1900
DGENRE=Gospel
TTITLE0=DESLUMBRANTE
TTITLE1=VENCENDO VEM JESUS
TTITLE2=A VINDA DO SENHOR
TTITLE3=VIDA POR UM OLHAR
TTITLE4=MAIS PERTO
TTITLE5=PARA ONDE FOR IREI
TTITLE6=NAUFRÁGIO
TTITLE7=CONTA AS BENÇÃOS
TTITLE8=EIS OS MILHÕES
TTITLE9=VEREI MEU REDENTOR
EXTD=
EXTT0=
EXTT1=
EXTT2=
EXTT3=
EXTT4=
EXTT5=
EXTT6=
EXTT7=
EXTT8=
EXTT9=
PLAYORDER=
